<?xml version="1.0" encoding="utf-8"?>
<!-- Generator: Adobe Illustrator 16.0.0, SVG Export Plug-In . SVG Version: 6.00 Build 0)  -->
<!DOCTYPE svg PUBLIC "-//W3C//DTD SVG 1.1//EN" "http://www.w3.org/Graphics/SVG/1.1/DTD/svg11.dtd">
<svg version="1.1" id="Calque_1" xmlns="http://www.w3.org/2000/svg" xmlns:xlink="http://www.w3.org/1999/xlink" x="0px" y="0px"
	 width="888px" height="1853px" viewBox="0 0 888 1853" enable-background="new 0 0 888 1853" xml:space="preserve">
<rect x="44" y="29" fill="none" width="888" height="1801"/>
<g enable-background="new    ">
	<path d="M129.021,231.961c-2.841,6.225-6.09,11.303-9.747,15.234c-3.66,3.932-7.945,6.773-12.859,8.519
		c-1.966,0.763-4.014,1.364-6.144,1.802c-2.129,0.436-4.397,0.655-6.798,0.655c-2.294,0-4.505-0.245-6.635-0.736
		c-2.13-0.492-4.233-1.065-6.307-1.721c-3.824-1.311-7.372-3.03-10.648-5.16s-6.335-4.996-9.174-8.601
		c-2.076-2.511-3.85-5.241-5.324-8.19c-1.475-2.949-2.759-6.061-3.85-9.337c-0.983-11.247-1.749-22.96-2.293-35.139
		c-0.548-12.176-0.819-25.146-0.819-38.906c0-15.071,0.3-29.323,0.901-42.756c0.599-13.433,1.446-26.428,2.539-38.988
		c1.746-5.897,3.985-11.029,6.716-15.398c2.729-4.367,6.005-8.298,9.829-11.795c7.753-6.988,16.545-10.484,26.375-10.484
		c5.569,0,10.919,1.311,16.054,3.932l3.768,1.966c1.639,0.875,2.949,1.31,3.932,1.31c1.091,0,1.909-0.545,2.457-1.638
		c0.546-1.09,0.983-2.892,1.311-5.406h2.526l1.896,37.022h-2.784c-0.655-9.719-3.497-17.418-8.519-23.098
		c-5.135-5.897-11.523-8.846-19.167-8.846c-10.156,0-17.966,5.352-23.425,16.054c-1.858,3.604-3.386,9.01-4.587,16.218
		c-0.548,12.123-1.011,25.01-1.392,38.661c-0.384,13.653-0.574,28.34-0.574,44.066c0,14.416,0.189,27.549,0.574,39.397
		c0.381,11.851,0.901,23.016,1.556,33.5c0.873,4.259,2.02,7.919,3.44,10.976c2.511,5.242,5.979,9.312,10.402,12.204
		c4.423,2.896,9.583,4.342,15.48,4.342c6.226,0,11.575-1.721,16.054-5.16c4.478-3.44,8.626-8.929,12.45-16.464L129.021,231.961z"/>
	<path d="M195.035,255.55c1.528,4.915,3.63,9.363,6.307,13.352c2.675,3.985,5.596,7.069,8.765,9.256
		c2.073,1.418,4.641,2.675,7.699,3.768c3.056,1.09,6.169,1.855,9.337,2.293v2.785c-6.88-0.438-13.104-1.557-18.675-3.358
		c-5.569-1.802-11.14-4.505-16.709-8.108c-4.151-2.731-7.974-5.652-11.467-8.765c-3.497-3.112-6.663-6.581-9.502-10.402
		c-0.548-0.109-1.121-0.302-1.72-0.573c-0.602-0.273-1.175-0.466-1.72-0.573c-5.897-2.184-11.168-6.062-15.809-11.631
		c-4.644-5.569-8.219-12.123-10.729-19.658c-1.203-12.885-2.158-26.292-2.867-40.217c-0.712-13.925-1.064-28.75-1.064-44.476
		c0-12.885,0.245-25.228,0.737-37.022c0.491-11.795,1.172-23.315,2.047-34.565c2.621-9.173,6.66-17.09,12.123-23.753
		c3.932-4.587,8.272-7.971,13.023-10.157c4.75-2.183,10.238-3.276,16.463-3.276c12.013,0,21.842,4.479,29.487,13.433
		c5.569,6.445,9.608,14.362,12.122,23.753c0.873,11.25,1.557,22.771,2.048,34.565s0.737,24.137,0.737,37.022
		c0,15.726-0.356,30.551-1.065,44.476c-0.711,13.924-1.666,27.332-2.866,40.217c-2.403,7.535-5.872,14.034-10.402,19.494
		c-4.533,5.463-9.747,9.338-15.645,11.631c-0.11,0-0.164,0.028-0.164,0.082c0,0.057-0.056,0.082-0.164,0.082L195.035,255.55z
		 M181.111,251.619c4.587,0,8.491-1.091,11.713-3.276c3.221-2.184,6.033-5.734,8.437-10.648c0.873-1.746,1.664-3.793,2.376-6.143
		c0.709-2.347,1.282-4.94,1.72-7.781c0.436-11.575,0.819-24.327,1.146-38.251c0.328-13.924,0.492-29.569,0.492-46.933
		c0-13.761-0.11-26.375-0.328-37.842c-0.22-11.467-0.491-22.442-0.819-32.927c-1.42-11.14-4.151-19.192-8.19-24.163
		c-4.042-4.968-9.501-7.454-16.382-7.454c-9.283,0-16.11,4.586-20.477,13.76c-1.093,2.186-2.048,4.779-2.867,7.781
		c-0.819,3.005-1.339,6.417-1.556,10.239c-0.548,10.267-0.876,21.132-0.983,32.599c-0.11,11.467-0.164,24.245-0.164,38.333
		c0,17.584,0.082,33.311,0.246,47.179c0.164,13.871,0.627,26.538,1.393,38.005c0.218,3.497,0.845,6.499,1.884,9.01
		c1.036,2.514,2.155,4.807,3.358,6.88c4.694,7.974,11.14,11.959,19.33,11.959L181.111,251.619z"/>
	<path d="M277.432,251.946v2.785h-44.395v-2.785h1.475c5.132,0,8.626-0.982,10.484-2.948c1.638-1.746,2.457-5.788,2.457-12.123
		V49.798c0-6.333-0.819-10.375-2.457-12.123c-1.858-1.966-5.353-2.949-10.484-2.949h-1.475v-2.785h44.395v2.785h-1.638
		c-5.135,0-8.575,0.983-10.321,2.949c-0.982,1.093-1.666,2.595-2.047,4.505c-0.385,1.912-0.574,4.451-0.574,7.618v73.553h40.463
		V49.798c0-6.225-0.819-10.21-2.457-11.959c-1.531-1.965-5.024-2.948-10.484-2.948h-1.638v-2.785h44.885v2.785h-1.966
		c-5.134,0-8.574,0.983-10.32,2.948c-0.982,1.093-1.666,2.596-2.048,4.505c-0.384,1.912-0.573,4.451-0.573,7.617v187.078
		c0,3.169,0.189,5.708,0.573,7.617c0.382,1.912,1.065,3.415,2.048,4.505c1.746,1.966,5.187,2.949,10.32,2.949h1.966v2.785h-44.885
		v-2.785h1.638c5.46,0,8.953-0.983,10.484-2.949c0.873-0.982,1.5-2.482,1.884-4.505c0.381-2.02,0.573-4.505,0.573-7.453v-92.229
		h-40.463v92.229c0,3.169,0.189,5.708,0.574,7.617c0.381,1.912,1.064,3.415,2.047,4.505c1.746,1.966,5.187,2.949,10.321,2.949
		L277.432,251.946z"/>
	<path d="M403.895,255.483c-2.076,0.671-4.259,1.26-6.553,1.767c-2.293,0.504-4.86,0.758-7.699,0.758
		c-2.621,0-5.135-0.221-7.535-0.655c-2.403-0.438-4.697-1.039-6.881-1.803c-4.587-1.418-8.492-3.439-11.713-6.061
		c-3.222-2.621-5.815-6.005-7.781-10.156c-0.875-1.856-1.612-3.932-2.211-6.226c-0.602-2.293-0.957-5.186-1.065-8.682
		c-0.109-5.57-0.191-11.738-0.245-18.511c-0.057-6.77-0.082-14.306-0.082-22.606V50.617c0-5.897-0.794-9.911-2.375-12.041
		c-1.585-2.129-4.833-3.194-9.747-3.194h-0.655v-2.785h40.79v2.785h-0.655c-4.587,0-7.756,1.037-9.502,3.11
		c-0.982,1.203-1.638,2.785-1.966,4.748c-0.327,1.966-0.491,4.42-0.491,7.367v173.675l0.328,3.602
		c0.655,7.531,3.112,13.397,7.371,17.597c4.26,4.203,9.993,6.302,17.201,6.302c5.897,0,11.14-1.554,15.727-4.663
		c4.587-3.11,7.753-7.449,9.501-13.016c0.436-1.418,0.819-2.89,1.146-4.417c0.328-1.528,0.545-3.274,0.655-5.24
		c0.107-5.237,0.189-10.858,0.246-16.86c0.054-6,0.082-13.149,0.082-21.444V50.768c0-3.164-0.192-5.726-0.573-7.691
		c-0.385-1.963-1.012-3.545-1.885-4.748c-1.857-1.963-5.188-2.946-9.992-2.946h-0.491v-2.785h31.616v2.785h-0.655
		c-4.587,0-7.756,1.039-9.501,3.112c-0.876,1.201-1.475,2.783-1.803,4.749c-0.327,1.965-0.491,4.423-0.491,7.369v135.435
		c0,7.536-0.028,14.413-0.082,20.636c-0.056,6.225-0.138,12.12-0.245,17.687c-0.11,3.276-0.41,6.059-0.901,8.352
		s-1.121,4.367-1.884,6.222c-1.748,4.149-4.233,7.59-7.454,10.318c-3.223,2.729-7.126,4.804-11.713,6.222H403.895z"/>
	<path d="M486.127,82.563v-9.34h17.364v9.501c-2.076,3.059-3.551,6.937-4.423,11.631c-0.438,2.403-0.901,5.733-1.393,9.993
		c-0.492,4.259-1.012,9.501-1.557,15.727l-7.863,103.695l-7.863,31.125l-1.311,5.405c-2.293,9.502-5.405,16.571-9.337,21.214
		c-3.932,4.641-8.519,6.963-13.761,6.963c-2.841,0-5.217-0.794-7.126-2.376c-1.912-1.584-2.867-3.578-2.867-5.979
		c0-2.076,0.764-3.878,2.294-5.406c1.528-1.53,3.33-2.294,5.406-2.294c0.872,0,1.745,0.136,2.621,0.41
		c0.872,0.271,1.802,0.627,2.784,1.064c1.418,0.655,2.294,1.037,2.621,1.146c0.328,0.108,0.709,0.164,1.146,0.164
		c1.418,0,2.757-0.655,4.014-1.966c1.255-1.311,2.483-3.386,3.687-6.225c0.872-2.076,1.609-4.014,2.211-5.815
		c0.599-1.802,1.119-3.85,1.557-6.144l-10.32-31.125l-9.993-103.204c-0.548-5.897-1.146-10.948-1.802-15.153
		c-0.655-4.203-1.367-7.889-2.13-11.058c-1.311-5.788-3.223-9.666-5.733-11.631v-9.501h29.159v9.337
		c-2.621,0.22-4.505,1.776-5.651,4.669c-1.147,2.895-1.721,7.454-1.721,13.678c0,1.858,0.054,3.932,0.164,6.225
		c0.107,2.293,0.328,5.024,0.655,8.191l10.484,108.61l2.621,7.863h0.327l1.966-7.863l8.519-114.18
		c0.218-3.494,0.382-6.115,0.491-7.863c0.108-1.746,0.164-3.33,0.164-4.75c0-8.191-1.584-12.832-4.75-13.924L486.127,82.563z"/>
	<path d="M549.357,73.715h19.494v9.993c-1.858,1.203-3.44,4.259-4.751,9.174c-0.548,2.403-1.121,5.598-1.72,9.583
		c-0.602,3.988-1.175,8.928-1.72,14.825l-9.829,106.972l-9.665,30.961l-0.655,1.966h-2.785l-0.491-1.966l-9.502-30.961
		l-9.501-103.695c-1.093-11.357-2.321-19.903-3.686-25.637c-1.367-5.733-3.141-9.527-5.324-11.385v-9.993h28.504v9.993h-0.491
		c-1.966,0-3.551,1.94-4.751,5.815c-1.203,3.877-1.802,8.928-1.802,15.153c0,2.186,0.082,4.479,0.245,6.88
		c0.164,2.403,0.41,5.352,0.737,8.846l9.502,104.187l1.802,6.225h0.327l1.966-6.225l9.829-109.756
		c0.328-3.932,0.573-6.988,0.737-9.174c0.164-2.184,0.246-4.096,0.246-5.734c0-5.569-0.548-9.583-1.639-12.04
		c-1.093-2.458-2.841-3.793-5.242-4.014L549.357,73.715z"/>
	<path d="M608,252.766v2.784h-33.091v-2.784h0.655c5.569,0,8.354-4.149,8.354-12.45V91.407h-9.01V74.042h9.01v-9.337
		c0-5.897,0.698-10.919,2.102-15.071c1.402-4.149,3.614-7.971,6.634-11.467c4.879-5.569,11.304-8.354,19.277-8.354
		c4.914,0,9.035,1.121,12.368,3.358c3.33,2.24,4.996,5.106,4.996,8.6c0,1.858-0.655,3.468-1.966,4.833
		c-1.311,1.367-2.949,2.048-4.915,2.048c-1.42,0-2.539-0.381-3.357-1.146c-0.819-0.763-1.94-2.347-3.358-4.751
		c-1.639-2.838-3.141-4.804-4.505-5.897c-1.367-1.091-3.031-1.638-4.997-1.638c-3.386,0-5.843,1.748-7.371,5.242
		c-1.203,2.731-1.802,6.937-1.802,12.614v20.641h11.303v17.364h-11.303v148.908c0,2.404,0.217,4.316,0.655,5.734
		c0.435,1.42,1.036,2.621,1.802,3.604c0.763,0.875,1.773,1.585,3.03,2.13c1.254,0.548,2.483,0.819,3.686,0.819L608,252.766z"/>
	<path d="M656.814,82.563v-9.34h17.364v9.501c-2.076,3.059-3.551,6.937-4.423,11.631c-0.438,2.403-0.901,5.733-1.393,9.993
		c-0.492,4.259-1.012,9.501-1.557,15.727l-7.863,103.695l-7.863,31.125l-1.311,5.405c-2.293,9.502-5.405,16.571-9.337,21.214
		c-3.932,4.641-8.519,6.963-13.761,6.963c-2.841,0-5.217-0.794-7.126-2.376c-1.912-1.584-2.867-3.578-2.867-5.979
		c0-2.076,0.764-3.878,2.294-5.406c1.528-1.53,3.33-2.294,5.406-2.294c0.872,0,1.745,0.136,2.621,0.41
		c0.872,0.271,1.802,0.627,2.784,1.064c1.418,0.655,2.294,1.037,2.621,1.146c0.328,0.108,0.709,0.164,1.146,0.164
		c1.418,0,2.757-0.655,4.014-1.966c1.255-1.311,2.483-3.386,3.687-6.225c0.872-2.076,1.609-4.014,2.211-5.815
		c0.599-1.802,1.119-3.85,1.557-6.144l-10.32-31.125l-9.993-103.204c-0.548-5.897-1.146-10.948-1.802-15.153
		c-0.655-4.203-1.367-7.889-2.13-11.058c-1.311-5.788-3.223-9.666-5.733-11.631v-9.501h29.159v9.337
		c-2.621,0.22-4.505,1.776-5.651,4.669c-1.147,2.895-1.721,7.454-1.721,13.678c0,1.858,0.054,3.932,0.164,6.225
		c0.107,2.293,0.328,5.024,0.655,8.191l10.484,108.61l2.621,7.863h0.327l1.966-7.863l8.519-114.18
		c0.218-3.494,0.382-6.115,0.491-7.863c0.108-1.746,0.164-3.33,0.164-4.75c0-8.191-1.584-12.832-4.75-13.924L656.814,82.563z"/>
	<path d="M695.896,100.908c5.176-13.978,14.045-25.445,26.604-34.401v2.785c-3.604,3.276-6.526,6.745-8.764,10.402
		c-2.24,3.661-4.07,7.781-5.488,12.368c-0.438,1.311-0.847,2.731-1.229,4.259c-0.384,1.531-0.737,3.112-1.064,4.75
		c-0.766,14.744-1.339,30.526-1.721,47.343c-0.384,16.819-0.573,35.057-0.573,54.715c0,5.242,0,10.348,0,15.316
		c0,4.971,0.054,9.911,0.164,14.826c0.107,5.242,0.491,10.021,1.146,14.334c0.655,4.315,1.418,8.38,2.294,12.204
		c0.327,1.2,0.627,2.347,0.9,3.44c0.271,1.09,0.573,2.073,0.901,2.948c2.729,7.753,7.262,14.47,13.597,20.149v2.948
		c-4.914-3.275-9.229-6.908-12.941-10.894c-3.714-3.987-6.975-8.6-9.78-13.842c-0.43-0.766-0.809-1.503-1.132-2.212
		c-0.322-0.712-0.647-1.449-0.97-2.212c-1.726-3.823-3.235-7.971-4.53-12.449c-1.295-4.478-2.048-9.174-2.263-14.088
		c-0.328-5.242-0.491-10.292-0.491-15.153c0-4.858,0-9.911,0-15.153c0-18.782,0.43-36.584,1.292-53.404
		c0.862-16.817,2.158-33.091,3.886-48.817L695.896,100.908z"/>
	<path d="M763.943,252.766v2.784H727.74v-2.784h1.146c6.115,0,9.174-4.149,9.174-12.45v-95.341c0-4.587,0-8.49,0-11.713
		c0-3.22-0.057-5.759-0.164-7.617c-0.109-1.856-0.22-3.604-0.327-5.242c-0.11-1.638-0.274-3.167-0.491-4.587
		c-0.876-6.005-2.404-9.01-4.587-9.01c-0.548,0-1.04,0.164-1.475,0.491c-0.438,0.328-1.039,0.875-1.802,1.638l-0.819-9.337
		l19.812-30.142l0.665-0.819h2.621v53.077h0.328l3.44-22.279c0.435-2.511,0.9-4.886,1.392-7.126
		c0.492-2.237,1.009-4.231,1.557-5.979c1.746-5.57,3.384-9.665,4.914-12.286c1.528-2.621,3.113-4.203,4.751-4.751
		c0.218-0.107,0.436-0.271,0.655-0.491c0.218-0.218,0.382-0.328,0.491-0.328c0.328,0,0.6,0.11,0.819,0.328
		c0.218,0.22,0.491,0.384,0.819,0.491c2.293,1.093,4.203,4.288,5.733,9.583c1.528,5.298,2.293,11.713,2.293,19.249
		c0,6.772-0.765,12.941-2.293,18.511c-1.311,5.025-3.059,7.536-5.242,7.536c-1.093,0-1.966-0.681-2.621-2.048
		c-0.655-1.364-1.53-3.793-2.621-7.29c-1.093-3.494-1.912-5.759-2.457-6.798c-0.548-1.037-1.146-1.556-1.802-1.556
		c-1.749,0-3.333,2.621-4.751,7.863c-1.421,5.242-3.169,14.035-5.242,26.375v99.109c0,4.587,0.819,7.81,2.457,9.665
		c1.639,1.858,4.531,2.785,8.683,2.785L763.943,252.766z"/>
	<path d="M787.529,58.808l9.01-26.21h52.093l-9.828,35.056l-13.105,156.281l-8.847,31.289l-0.491,1.966l-6.389-1.966l-2.13-0.491
		l8.683-30.797L829.465,67.49l6.225-21.951h-21.46c-7.1,0-12.342,0.983-15.726,2.949c-3.387,1.966-6.172,5.68-8.354,11.139
		L787.529,58.808z"/>
</g>
<g enable-background="new    ">
	<path d="M71.898,400.056c-1.918,6.201-4.116,9.299-6.594,9.299c-2.594,0-4.848-3.099-6.763-9.299
		c-1.015-3.154-1.72-6.594-2.114-10.314c-0.396-3.72-0.592-7.719-0.592-12.004c0-7.778,0.761-14.398,2.283-19.867
		c1.521-5.466,3.408-8.763,5.664-9.891c0.225-0.111,0.478-0.309,0.761-0.592c0.28-0.28,0.479-0.423,0.592-0.423
		c0.225,0,0.479,0.143,0.761,0.423c0.28,0.283,0.479,0.481,0.592,0.592c2.254,1.128,4.143,4.425,5.665,9.891
		c1.522,5.469,2.283,12.089,2.283,19.867c0,4.285-0.228,8.258-0.677,11.92c-0.452,3.665-1.184,7.13-2.198,10.398H71.898z
		 M60.232,540.899c-2.705-1.464-4.058-4-4.058-7.609c0-2.478,0.93-4.649,2.79-6.509c1.86-1.86,4.084-2.79,6.679-2.79
		c2.478,0,4.65,0.93,6.51,2.79c1.86,1.859,2.79,4.031,2.79,6.509c0,1.58-0.338,3.044-1.015,4.396
		c-0.676,1.353-1.58,2.425-2.705,3.213c-1.58,1.353-3.439,2.028-5.58,2.028C63.5,542.927,61.696,542.251,60.232,540.899z"/>
	<path d="M163.873,363.027v-10.314h19.951v10.314c-2.029,1.242-3.439,3.889-4.227,7.947c-0.452,2.029-0.875,4.988-1.269,8.876
		c-0.396,3.889-0.874,8.877-1.438,14.964l-9.976,114.974l-9.468,32.294h-3.89l-10.145-32.294l-4.734-49.878h-0.338l-5.072,49.878
		l-11.159,32.294h-4.396l-9.468-32.294l-10.145-115.65c-1.015-11.046-2.143-18.823-3.382-23.333
		c-1.353-4.621-2.988-7.212-4.903-7.778v-10.314h28.405v10.314c-2.705,0.227-4.595,1.522-5.664,3.889
		c-1.073,2.367-1.606,6.425-1.606,12.174c0,2.594,0.085,5.638,0.254,9.13c0.169,3.495,0.423,7.046,0.761,10.652l9.638,111.085
		l2.536,8.792h0.338l2.874-8.792l8.116-79.298l-3.382-36.352c-0.565-5.411-1.099-9.947-1.606-13.611
		c-0.507-3.662-1.099-6.621-1.775-8.877c-1.353-4.507-3.212-7.381-5.579-8.623v-10.313h30.772v10.313
		c-3.271,0.565-5.495,2.283-6.679,5.157c-1.184,2.874-1.775,7.693-1.775,14.456c0,2.029,0.056,4.341,0.169,6.932
		c0.111,2.595,0.28,4.903,0.507,6.933l10.314,113.283l2.028,7.102h0.339l2.028-7.102l10.146-117.341
		c0.338-4.058,0.562-6.903,0.676-8.539c0.111-1.632,0.169-3.07,0.169-4.312c0-11.045-2.198-16.57-6.594-16.57L163.873,363.027z"/>
	<path d="M223.894,459.064l6.933,49.878l7.946,16.57c2.14,4.396,3.974,7.413,5.495,9.046c1.521,1.635,3.521,2.679,6.002,3.128v2.874
		h-29.758v-2.874h0.846c4.058,0,6.087-1.015,6.087-3.044c0-0.676-0.113-1.268-0.338-1.774c-0.228-0.508-0.677-1.493-1.353-2.959
		l-9.469-20.966l-11.328,21.811c-0.79,1.467-1.184,2.706-1.184,3.72c0,1.128,0.478,1.89,1.437,2.283
		c0.957,0.396,2.901,0.649,5.834,0.761v2.874h-21.135v-2.874c1.125-0.225,2.14-0.508,3.043-0.846c0.901-0.338,1.746-0.9,2.536-1.69
		c1.353-1.577,2.985-4.169,4.903-7.778l9.638-18.598l3.382-21.304l-12.005-86.737c-0.79-5.411-1.58-10.086-2.367-14.034
		c-0.79-3.944-1.636-7.439-2.536-10.483c-1.805-5.859-4.003-10.313-6.594-13.357v-9.807h29.081v9.807
		c-2.143,0.338-3.664,1.437-4.565,3.297c-0.903,1.86-1.353,5.326-1.353,10.398c0,1.466,0.056,2.903,0.169,4.312
		c0.111,1.411,0.28,2.959,0.508,4.649l7.102,52.077l7.777-50.386c0.338-2.478,0.618-4.649,0.846-6.51
		c0.225-1.859,0.338-3.635,0.338-5.326c0-3.944-0.452-6.874-1.353-8.792c-0.903-1.916-2.426-3.155-4.565-3.72v-9.807h22.826v9.807
		c-3.044,0.565-5.58,3.72-7.609,9.468c-1.918,5.638-4.058,15.838-6.425,30.604L223.894,459.064z"/>
	<path d="M256.015,345.781l0.507-0.169c13.072,9.357,22.282,21.193,27.626,35.506c1.781,16.232,3.117,33.029,4.008,50.386
		c0.891,17.36,1.337,35.734,1.337,55.12c0,5.411-0.029,10.625-0.085,15.64c-0.058,5.017-0.253,10.229-0.592,15.64
		c-0.222,5.072-0.975,9.891-2.253,14.456c-1.281,4.565-2.812,8.818-4.592,12.766c-0.558,1.353-1.142,2.705-1.754,4.058
		c-0.613,1.353-1.308,2.592-2.085,3.72c-3.021,4.734-6.309,8.933-9.859,12.597c-3.551,3.661-7.523,7.017-11.92,10.061v-3.044
		c3.72-3.382,6.764-6.961,9.131-10.736c2.366-3.778,4.282-8.031,5.748-12.766c0.111-0.565,0.254-1.184,0.423-1.859
		c0.169-0.677,0.31-1.353,0.423-2.029c0.9-3.72,1.69-7.804,2.367-12.258c0.676-4.452,1.069-9.385,1.184-14.795
		c0.11-5.072,0.195-10.171,0.253-15.302c0.056-5.127,0.085-10.398,0.085-15.809c0-20.4-0.254-39.282-0.761-56.642
		c-0.507-17.357-1.157-33.646-1.944-48.864c-0.79-4.734-1.805-8.734-3.044-12.004c-2.705-7.889-7.439-14.821-14.202-20.797V345.781z
		"/>
	<path d="M338.015,334.453c0.563,0.227,1.269,0.452,2.114,0.676c0.845,0.227,1.886,0.452,3.128,0.676
		c8.902,1.466,13.356,4.227,13.356,8.285c0,0.227-0.058,0.536-0.169,0.93c-0.113,0.396-0.169,0.706-0.169,0.93
		c-0.451,4.058-1.184,7.328-2.198,9.806c-1.014,2.481-2.256,3.72-3.72,3.72c-1.241,0-2.425-0.985-3.551-2.958
		c-1.128-1.971-2.312-5.495-3.55-10.567c-0.114-0.225-0.254-0.479-0.423-0.761c-0.169-0.28-0.312-0.534-0.423-0.761
		c-2.367-2.93-4.2-5.014-5.495-6.256c-1.297-1.239-2.51-2.14-3.636-2.705v0.845c0,0.79,0.159,1.86,0.481,3.212
		s0.75,2.764,1.286,4.227l0.481,1.521h0.161l0.803,7.102c0.449,3.72,0.787,7.608,1.015,11.667c0.225,4.058,0.338,7.777,0.338,11.159
		c0,6.425-0.565,11.835-1.69,16.231c-1.128,4.396-2.536,6.594-4.228,6.594c-1.69,0-3.102-2.198-4.227-6.594
		c-1.128-4.396-1.69-9.807-1.69-16.231c0-3.382,0.11-7.186,0.338-11.413c0.225-4.227,0.507-8.031,0.846-11.413l0.676-7.102h0.169
		l0.508-1.521c1.238-3.606,1.859-6.087,1.859-7.439v-0.845c-1.241,0.565-2.51,1.551-3.804,2.958
		c-1.298,1.411-3.073,3.411-5.326,6.002l-1.184,1.353c-1.128,4.734-2.256,8.174-3.382,10.314c-1.128,2.143-2.367,3.212-3.72,3.212
		s-2.425-1.324-3.213-3.973c-0.789-2.647-1.579-5.833-2.366-9.553l-0.339-1.69c0-2.14,0.985-3.916,2.959-5.326
		c1.971-1.408,5.326-2.452,10.061-3.128c2.705-0.449,4.536-0.788,5.495-1.015c0.956-0.225,2-0.732,3.128-1.521
		c-1.128-0.788-2.172-1.324-3.128-1.606c-0.959-0.28-2.79-0.647-5.495-1.099c-4.734-0.787-8.09-1.802-10.061-3.043
		c-1.974-1.239-2.959-2.93-2.959-5.072c0-1.577,0.563-2.93,1.691-4.058c1.125-1.125,2.536-1.691,4.227-1.691
		c1.353,0,2.731,0.423,4.143,1.268c1.408,0.845,2.845,2.227,4.312,4.143l2.705,3.55c1.015,1.242,2.085,2.367,3.213,3.382
		c1.125,1.015,2.14,1.749,3.043,2.198c0-1.239-0.143-2.507-0.423-3.804c-0.282-1.294-0.761-2.9-1.437-4.818l-1.353-3.889
		c-0.339-1.014-0.621-2.14-0.846-3.381c-0.228-1.239-0.338-2.367-0.338-3.382c0-1.915,0.562-3.521,1.69-4.819
		c1.125-1.294,2.536-1.944,4.227-1.944c1.691,0,3.1,0.65,4.228,1.944c1.125,1.297,1.69,2.904,1.69,4.819
		c0,2.143-0.436,4.396-1.305,6.763l-1.467,3.889c-0.544,1.466-0.979,2.874-1.305,4.227c-0.327,1.353-0.489,2.425-0.489,3.213
		l-0.169,0.845c0.901-0.449,2.029-1.239,3.382-2.367c1.353-1.125,2.479-2.309,3.382-3.551l2.705-3.72
		c2.367-3.154,5.015-4.734,7.946-4.734c1.802,0,3.324,0.536,4.565,1.606c1.239,1.073,1.86,2.452,1.86,4.143
		c0,4.058-4.454,6.821-13.357,8.285c-2.595,0.452-4.396,0.819-5.411,1.099c-1.014,0.283-2.197,0.819-3.55,1.606
		c0.676,0.338,1.294,0.65,1.859,0.93c0.562,0.283,1.184,0.537,1.86,0.761L338.015,334.453z"/>
	<path d="M448.928,516.213c-2.933,6.425-6.285,11.667-10.061,15.724c-3.777,4.059-8.2,6.99-13.272,8.792
		c-2.029,0.788-4.143,1.408-6.34,1.86c-2.198,0.449-4.539,0.676-7.018,0.676c-2.367,0-4.649-0.253-6.848-0.761
		c-2.197-0.507-4.369-1.099-6.509-1.775c-3.947-1.353-7.609-3.128-10.99-5.325c-3.382-2.198-6.539-5.157-9.469-8.877
		c-2.143-2.592-3.974-5.41-5.495-8.454c-1.521-3.043-2.848-6.256-3.974-9.637c-1.015-11.608-1.804-23.698-2.367-36.268
		c-0.565-12.567-0.845-25.954-0.845-40.156c0-15.555,0.309-30.265,0.93-44.13c0.618-13.864,1.492-27.277,2.621-40.241
		c1.802-6.087,4.113-11.384,6.932-15.893c2.816-4.507,6.198-8.565,10.145-12.174c8.003-7.212,17.077-10.821,27.222-10.821
		c5.749,0,11.271,1.353,16.57,4.058l3.889,2.029c1.69,0.904,3.043,1.353,4.058,1.353c1.126,0,1.971-0.562,2.536-1.69
		c0.563-1.125,1.015-2.985,1.353-5.58h2.608l1.957,38.211h-2.874c-0.677-10.031-3.609-17.978-8.792-23.84
		c-5.3-6.087-11.894-9.13-19.782-9.13c-10.483,0-18.544,5.524-24.179,16.57c-1.918,3.72-3.495,9.299-4.734,16.739
		c-0.565,12.512-1.043,25.813-1.437,39.903c-0.396,14.091-0.592,29.25-0.592,45.482c0,14.879,0.195,28.435,0.592,40.664
		c0.394,12.232,0.93,23.755,1.605,34.577c0.901,4.396,2.085,8.174,3.551,11.328c2.592,5.411,6.172,9.611,10.736,12.597
		c4.565,2.988,9.892,4.48,15.979,4.48c6.425,0,11.946-1.775,16.569-5.326c4.621-3.551,8.903-9.215,12.851-16.992L448.928,516.213z"
		/>
	<path d="M486.122,537.348v2.874H455.35v-2.874c3.044-0.225,5.241-1.353,6.594-3.382c0.563-0.901,0.985-2.029,1.269-3.382
		c0.28-1.353,0.423-3.268,0.423-5.748V415.949c0-3.944-0.029-7.271-0.085-9.976c-0.058-2.706-0.143-4.79-0.254-6.256
		c-0.113-1.464-0.169-2.761-0.169-3.889c0-1.125-0.113-2.084-0.338-2.874c-0.676-4.283-1.805-6.425-3.382-6.425
		c-0.79,0-1.973,0.79-3.551,2.367l-0.845-8.623l18.937-31.618l0.677-1.015h2.874v53.767h0.169
		c2.705-17.019,5.635-29.784,8.792-38.296c3.154-8.509,6.536-13.328,10.145-14.456c0.225-0.111,0.508-0.254,0.846-0.423
		s0.618-0.253,0.846-0.253c0.225,0,0.507,0.084,0.845,0.253c0.339,0.169,0.619,0.312,0.846,0.423
		c3.944,1.128,7.102,6.425,9.469,15.894c2.367,9.468,3.775,22.826,4.227,40.071h0.339c2.829-18.371,5.83-32.04,9-41.001
		c3.171-8.961,6.623-14.004,10.361-15.132c0.228-0.111,0.511-0.309,0.849-0.592c0.338-0.28,0.623-0.423,0.851-0.423
		c0.225,0,0.479,0.143,0.764,0.423c0.282,0.283,0.539,0.48,0.766,0.592c5.094,1.128,8.858,8.483,11.294,22.064
		c2.434,13.584,3.651,33.845,3.651,60.784v93.331c0,2.481,0.169,4.396,0.507,5.749c0.339,1.353,0.901,2.595,1.691,3.72
		c1.353,1.805,3.099,2.819,5.241,3.044v2.874H528.9v-2.874h0.676c5.635,0,8.454-4.228,8.454-12.682v-92.824
		c0-17.809-0.677-30.743-2.029-38.804c-1.353-8.058-3.664-12.089-6.932-12.089c-2.481,0-4.734,2.763-6.764,8.285
		c-1.128,2.933-2.312,6.708-3.551,11.329c-1.241,4.623-2.536,10.313-3.889,17.077v107.196c0,2.367,0.195,4.312,0.592,5.834
		c0.394,1.521,0.985,2.789,1.775,3.804c0.677,0.79,1.633,1.495,2.874,2.113c1.239,0.621,2.367,0.931,3.382,0.931h0.677v2.874
		h-31.787v-2.874h0.507c1.015,0,2.198-0.365,3.551-1.1c1.353-0.731,2.367-1.606,3.044-2.62c1.239-1.691,1.859-4.677,1.859-8.962
		v-91.133c0-35.055-3.043-52.583-9.13-52.583c-4.962,0-9.526,12.174-13.695,36.521v107.196c0,4.396,0.731,7.667,2.198,9.807
		c0.787,0.79,1.717,1.467,2.789,2.029c1.07,0.565,2.169,0.846,3.298,0.846H486.122z"/>
	<path d="M639.643,363.027v-10.314h19.951v10.314c-2.029,1.242-3.439,3.889-4.227,7.947c-0.452,2.029-0.875,4.988-1.269,8.876
		c-0.396,3.889-0.874,8.877-1.438,14.964l-9.976,114.974l-9.468,32.294h-3.89l-10.145-32.294l-4.734-49.878h-0.338l-5.072,49.878
		l-11.159,32.294h-4.396l-9.468-32.294l-10.145-115.65c-1.015-11.046-2.143-18.823-3.382-23.333
		c-1.353-4.621-2.988-7.212-4.903-7.778v-10.314h28.405v10.314c-2.705,0.227-4.595,1.522-5.664,3.889
		c-1.073,2.367-1.606,6.425-1.606,12.174c0,2.594,0.085,5.638,0.254,9.13c0.169,3.495,0.423,7.046,0.761,10.652l9.638,111.085
		l2.536,8.792h0.338l2.874-8.792l8.116-79.298l-3.382-36.352c-0.565-5.411-1.099-9.947-1.606-13.611
		c-0.507-3.662-1.099-6.621-1.775-8.877c-1.353-4.507-3.212-7.381-5.579-8.623v-10.313h30.772v10.313
		c-3.271,0.565-5.495,2.283-6.679,5.157c-1.184,2.874-1.775,7.693-1.775,14.456c0,2.029,0.056,4.341,0.169,6.932
		c0.111,2.595,0.28,4.903,0.507,6.933l10.314,113.283l2.028,7.102h0.339l2.028-7.102l10.146-117.341
		c0.338-4.058,0.562-6.903,0.676-8.539c0.111-1.632,0.169-3.07,0.169-4.312c0-11.045-2.198-16.57-6.594-16.57L639.643,363.027z"/>
	<path d="M671.936,352.375l45.987-0.169v8.961l-22.4,146.93l-13.574,26.207h14.86c6.304,0,10.584-1.125,12.835-3.382
		c1.236-1.238,2.192-3.014,2.869-5.325c0.676-2.31,1.125-5.157,1.353-8.539h2.874l-1.02,22.826h-50.55v-2.875l14.903-28.912
		l20.878-136.447h-14.089c-4.414,0-7.526,3.44-9.336,10.314c-0.906,3.609-1.67,8.623-2.291,15.048
		c-0.623,6.425-1.046,14.599-1.273,24.517h-2.874L671.936,352.375z"/>
	<path d="M730.77,566.091c5.411-2.933,9.553-6.229,12.428-9.892c2.874-3.664,4.312-7.468,4.312-11.412
		c0-1.128-0.228-2.059-0.677-2.79c-0.451-0.734-0.959-1.099-1.521-1.099l-0.338-0.339l-0.169,0.339l-0.677,0.338
		c-0.228,0.11-0.452,0.225-0.677,0.338c-0.227,0.111-0.507,0.28-0.845,0.508c-1.128,1.014-2.595,1.521-4.396,1.521
		c-1.128,0-2.198-0.254-3.212-0.761c-1.015-0.508-1.918-1.157-2.706-1.944c-0.676-0.788-1.241-1.775-1.69-2.959
		c-0.452-1.184-0.676-2.394-0.676-3.636c0-2.93,0.985-5.381,2.958-7.354c1.972-1.971,4.423-2.959,7.355-2.959l-0.508,0.338
		c3.944,0,7.187,1.521,9.723,4.565c2.536,3.043,3.804,7.102,3.804,12.174c0,6.087-1.973,11.666-5.917,16.738
		c-3.947,5.072-9.469,8.903-16.57,11.498V566.091z M748.524,400.056c-1.918,6.201-4.116,9.299-6.595,9.299
		c-2.594,0-4.848-3.099-6.763-9.299c-1.015-3.154-1.72-6.594-2.113-10.314c-0.396-3.72-0.592-7.719-0.592-12.004
		c0-7.778,0.761-14.398,2.282-19.867c1.521-5.466,3.408-8.763,5.664-9.891c0.225-0.111,0.479-0.309,0.761-0.592
		c0.28-0.28,0.479-0.423,0.592-0.423c0.225,0,0.479,0.143,0.761,0.423c0.28,0.283,0.479,0.481,0.592,0.592
		c2.254,1.128,4.143,4.425,5.664,9.891c1.522,5.469,2.283,12.089,2.283,19.867c0,4.285-0.228,8.258-0.677,11.92
		c-0.452,3.665-1.184,7.13-2.198,10.398H748.524z"/>
	<path d="M799.75,537.348v2.874h-33.14v-2.874h0.677c6.086,0,9.13-4.338,9.13-13.02v-196.47c0-3.606-0.48-6.142-1.438-7.608
		c-0.959-1.464-2.51-2.198-4.649-2.198c-0.452,0-0.874,0.058-1.269,0.169c-0.396,0.113-0.93,0.227-1.605,0.338l-1.015-2.874
		l20.591-9.13h2.911v217.773c0,4.285,0.787,7.553,2.367,9.807c0.787,1.015,1.802,1.805,3.043,2.367
		c1.239,0.565,2.479,0.846,3.72,0.846H799.75z M803.808,452.045l9.807,56.588l11.328,19.257c1.239,2.026,2.367,3.714,3.382,5.067
		c1.015,1.353,1.859,2.309,2.536,2.871c1.69,1.015,3.889,1.577,6.594,1.688v2.874h-28.066v-2.874c2.478-0.111,3.72-0.843,3.72-2.195
		c0-0.677-0.114-1.324-0.339-1.942c-0.227-0.618-0.734-1.548-1.521-2.787l-12.85-22.128l-6.087-35.811l19.105-85.134
		c0.787-3.376,1.379-6.388,1.775-9.035c0.394-2.647,0.592-4.982,0.592-7.011c0-2.589-0.423-4.758-1.268-6.504
		c-0.846-1.744-1.89-2.618-3.128-2.618h-1.353v-9.807h27.222v9.807c-4.396,0-7.836,2.253-10.314,6.758
		c-1.128,2.14-2.396,5.461-3.804,9.965c-1.411,4.504-2.903,10.303-4.48,17.399L803.808,452.045z"/>
</g>
<g enable-background="new    ">
	<path d="M132.087,815.72c2.622,12.794,4.714,25.589,6.274,38.384c1.557,12.795,2.583,26.082,3.075,39.861
		c0,0.984,0.081,1.968,0.246,2.953c0.162,0.984,0.246,2.053,0.246,3.199c0,9.842-2.503,18.331-7.504,25.467
		c-5.006,7.134-11.688,12.263-20.054,15.378c-2.299,0.818-4.718,1.514-7.259,2.092c-2.545,0.572-5.129,0.859-7.75,0.859
		c-2.626,0-5.291-0.287-7.997-0.859c-2.707-0.578-5.21-1.273-7.505-2.092c-8.365-3.115-14.928-8.121-19.684-15.01
		c-4.76-6.889-7.135-15.009-7.135-24.359c0-1.146,0.161-2.376,0.492-3.691c0.327-1.311,0.492-2.541,0.492-3.69
		c1.146-23.783,3.895-46.542,8.243-68.28c4.345-21.733,10.703-43.344,19.069-64.835c-6.236-18.369-11.195-35.839-14.886-52.409
		c-3.691-16.566-6.521-33.298-8.489-50.195c-0.984-2.622-1.807-5.248-2.46-7.874c-0.658-2.622-0.984-5.329-0.984-8.12
		c0-11.646,3.852-21.161,11.564-28.542c7.874-7.382,17.631-11.073,29.281-11.073c5.739,0,10.826,0.904,15.255,2.707
		c4.429,1.807,8.446,4.429,12.057,7.874c3.606,3.61,6.397,7.712,8.365,12.303c1.969,4.594,2.953,9.104,2.953,13.533
		c0,7.055-1.888,13.372-5.659,18.946c-2.299,12.795-5.413,25.305-9.351,37.523c-3.937,12.222-8.857,25.466-14.763,39.737
		c5.248,14.437,9.842,28.135,13.779,41.091c3.937,12.96,7.216,25.835,9.842,38.63L132.087,815.72z M110.681,843.77
		c-2.626-9.35-5.579-19.23-8.858-29.649c-3.283-10.415-7.136-21.775-11.564-34.078c-5.252,13.779-9.065,29.938-11.441,48.472
		c-2.38,18.539-3.813,40.518-4.306,65.942c0,0.657-0.043,1.272-0.123,1.845c-0.085,0.577-0.123,1.192-0.123,1.845
		c0,11.811,2.418,21.122,7.259,27.927c4.836,6.809,11.441,10.211,19.807,10.211c6.89,0,12.549-2.498,16.978-7.504
		c4.43-5.002,6.644-11.442,6.644-19.315c0-5.575-1.068-10.581-3.198-15.009c-1.149-8.366-2.626-16.609-4.43-24.729
		c-1.807-8.12-3.937-16.854-6.396-26.205L110.681,843.77z M93.457,693.186c1.311,4.267,2.664,8.45,4.06,12.548
		c1.392,4.102,2.829,8.366,4.306,12.795c8.527-8.527,12.71-17.877,12.549-28.05c-0.165-5.248,0.038-10.496,0.615-15.747
		c0.572-5.248,1.269-10.742,2.092-16.486c2.787-5.574,4.183-12.056,4.183-19.438c0-8.858-2.134-15.909-6.397-21.161
		c-4.268-5.248-9.842-7.874-16.731-7.874s-12.345,2.257-16.362,6.767c-4.021,4.513-6.028,10.703-6.028,18.577
		c0,3.937,0.737,7.751,2.214,11.441c1.477,3.691,3.771,7.67,6.89,11.934h0.246l0.984,5.905c0.984,5.905,2.214,11.073,3.69,15.501
		c1.477,4.429,2.868,8.777,4.183,13.041L93.457,693.186z"/>
	<path d="M208.359,822.117l10.088,72.586l11.564,24.113c3.114,6.398,5.782,10.788,7.997,13.163c2.214,2.381,5.124,3.898,8.734,4.553
		v4.184h-43.305v-4.184h1.229c5.905,0,8.858-1.477,8.858-4.43c0-0.982-0.165-1.844-0.492-2.582
		c-0.331-0.738-0.984-2.172-1.969-4.306l-13.778-30.511l-16.486,31.74c-1.149,2.133-1.722,3.938-1.722,5.413
		c0,1.643,0.695,2.75,2.091,3.322c1.393,0.576,4.222,0.945,8.489,1.107v4.184h-30.757v-4.184c1.638-0.326,3.114-0.738,4.429-1.23
		c1.312-0.492,2.542-1.311,3.691-2.461c1.968-2.295,4.344-6.066,7.136-11.318l14.024-27.065l4.921-31.003l-17.47-126.225
		c-1.149-7.874-2.299-14.679-3.444-20.422c-1.149-5.74-2.38-10.827-3.69-15.255c-2.626-8.527-5.825-15.009-9.597-19.438v-14.271
		h42.321v14.271c-3.118,0.492-5.332,2.092-6.644,4.798c-1.314,2.707-1.969,7.75-1.969,15.132c0,2.133,0.081,4.225,0.246,6.274
		c0.162,2.053,0.408,4.306,0.738,6.767l10.334,75.784l11.319-73.324c0.491-3.606,0.899-6.766,1.229-9.473
		c0.327-2.707,0.492-5.291,0.492-7.751c0-5.74-0.657-10.003-1.968-12.794c-1.315-2.788-3.529-4.591-6.644-5.414v-14.271h33.217
		v14.271c-4.429,0.823-8.12,5.414-11.072,13.779c-2.791,8.204-5.905,23.048-9.35,44.535L208.359,822.117z"/>
	<path d="M304.314,936.816v4.145h-46.996v-4.184h0.984c8.365,0,12.549-6.225,12.549-18.677V632.41c0-5.248-0.7-8.938-2.092-11.072
		c-1.396-2.13-3.652-3.199-6.767-3.199c-0.657,0-1.272,0.084-1.845,0.246c-0.577,0.166-1.273,0.331-2.092,0.492l-1.477-4.183
		l29.28-13.533h4.429v133.36h0.492l0.738-6.643c2.461-11.318,4.756-20.953,6.89-28.911c2.13-7.955,4.264-14.64,6.397-20.054
		c2.13-5.248,4.264-9.308,6.397-12.179c2.13-2.868,4.429-4.714,6.89-5.536c0.492-0.162,0.941-0.408,1.353-0.738
		c0.408-0.327,0.861-0.492,1.354-0.492c0.653,0,1.23,0.165,1.723,0.492c0.492,0.331,0.984,0.577,1.477,0.738
		c3.279,1.638,6.312,5.286,9.104,10.938c2.787,5.655,4.921,13.152,6.397,22.495c0.819,5.736,1.557,11.761,2.215,18.069
		c0.653,6.313,1.229,13.152,1.722,20.526c0.327,7.378,0.654,15.697,0.984,24.955c0.327,9.258,0.492,19.542,0.492,30.849v128.816
		c0,5.736,1.022,10.245,3.076,13.521c2.049,3.281,4.878,5.002,8.488,5.164v4.184h-45.273v-4.184h0.738
		c8.857,0,13.286-6.232,13.286-18.7V786.439c0-13.94-0.246-25.836-0.737-35.678c-0.492-9.842-1.315-17.962-2.461-24.359
		c-2.134-12.137-5.744-18.208-10.826-18.208c-3.938,0-7.382,3.61-10.334,10.827c-1.477,3.61-3.161,8.654-5.045,15.132
		c-1.888,6.482-3.898,14.64-6.028,24.482v158.95c0,3.444,0.285,6.235,0.861,8.365c0.573,2.133,1.435,4.022,2.584,5.659
		c1.146,1.316,2.622,2.381,4.429,3.199c1.804,0.822,3.525,1.23,5.167,1.23L304.314,936.816z"/>
	<path d="M444.805,940.715l-6.644,3.443h-4.183v-18.945h-0.492c-4.921,7.22-10.173,12.386-15.748,15.501
		c-3.609,2.129-7.547,3.197-11.811,3.197c-4.429,0-8.696-1.068-12.794-3.197c-6.397-3.445-11.526-9.229-15.379-17.347
		c-3.855-8.12-5.947-17.839-6.274-29.157c-0.165-1.969-0.246-3.853-0.246-5.659c0-1.803,0-3.606,0-5.413
		c0-31.33,0.9-59.668,2.707-85.011c1.803-25.344,4.51-48.596,8.12-69.756c7.216-41.664,16.239-64.381,27.065-68.156
		c0.492-0.162,0.941-0.408,1.354-0.738c0.407-0.327,0.861-0.492,1.353-0.492c0.654,0,1.354,0.166,2.092,0.492
		c0.738,0.331,1.435,0.577,2.092,0.738c2.952,1.642,5.82,4.759,8.611,9.35c2.787,4.594,5.74,11.072,8.858,19.438v-52.163
		c0-4.264-0.085-7.462-0.246-9.596c-0.165-2.13-0.577-3.771-1.23-4.921c-0.657-1.638-1.642-2.868-2.952-3.691
		c-1.315-0.819-2.707-1.23-4.184-1.23c-0.984,0-1.968,0.085-2.952,0.246c-0.984,0.166-2.3,0.577-3.938,1.23l-1.476-3.937
		l31.986-14.517h4.183v309.042c0,6.397,0.696,10.911,2.092,13.533c1.392,2.626,3.729,3.937,7.013,3.937
		c0.492,0,0.984-0.08,1.477-0.246c0.492-0.161,1.146-0.326,1.968-0.492l1.477,3.692L444.805,940.715z M393.38,893.964
		c0.818,11.318,3.156,19.973,7.012,25.958c3.853,5.99,8.65,8.982,14.395,8.982c3.114,0,6.189-0.984,9.227-2.954
		c3.034-1.968,6.355-5.167,9.966-9.596V800.464c0-16.893-0.535-32.271-1.6-46.135c-1.068-13.86-2.503-26.451-4.306-37.769
		c-3.938-22.472-8.858-33.709-14.764-33.709c-6.728,0-11.895,13.864-15.501,41.583c-1.807,13.944-3.118,30.595-3.937,49.949
		c-0.823,19.357-1.23,41.994-1.23,67.911c0,9.35,0,18.25,0,26.696c0,8.451,0.246,16.855,0.738,25.221V893.964z"/>
	<path d="M578.406,706.472c0,6.397-0.246,10.542-0.738,12.426c-0.492,1.888-1.642,2.83-3.444,2.83h-15.748
		c1.804,12.96,3.114,25.305,3.938,37.031c0.818,11.73,1.229,24.321,1.229,37.769c0,20.668-1.026,39.246-3.075,55.731
		c-2.053,16.485-4.883,30.388-8.489,41.706c-3.117,2.953-6.809,5.29-11.072,7.012c-4.268,1.723-9.023,2.584-14.271,2.584
		c-3.938,0-8.612-0.9-14.025-2.707c-4.594,5.579-6.89,9.927-6.89,13.041c0,0.823,0.285,1.765,0.861,2.83
		c0.573,1.069,1.188,1.765,1.846,2.091c2.46,1.15,4.756,1.807,6.89,1.968c2.622,0.166,5.29,0.331,7.996,0.492
		c2.707,0.166,5.617,0.331,8.735,0.492l19.93,0.738c1.969,0.165,3.895,0.534,5.782,1.107c1.884,0.576,3.729,1.272,5.536,2.091
		c3.114,1.477,5.821,3.53,8.12,6.151c2.295,2.627,3.937,5.498,4.921,8.613c0.984,2.951,1.477,5.82,1.477,8.611
		c0,11.973-5.744,21.898-17.224,29.771c-5.744,4.1-11.934,7.26-18.577,9.475c-6.644,2.213-14.148,3.32-22.514,3.32
		c-10.992,0-20.423-2.379-28.296-7.135c-7.874-4.594-11.811-9.928-11.811-15.994c0-3.283,0.818-6.604,2.46-9.965
		c1.638-3.363,4.51-7.344,8.612-11.934l5.413-6.15l2.46-2.707c0.327,0,0.9-0.572,1.723-1.723c-7.055-1.969-10.58-5.904-10.58-11.81
		c0-5.575,4.018-12.63,12.057-21.161l3.937-4.183l0.492-0.492c0.162-0.161,0.246-0.327,0.246-0.492
		c-0.984-0.653-1.888-1.311-2.706-1.968c-0.823-0.653-1.642-1.311-2.461-1.968c-3.937-12.956-7.013-28.008-9.227-45.151
		c-2.215-17.139-3.322-36.292-3.322-57.453c0-18.37,0.776-35.02,2.338-49.949c1.557-14.925,3.895-28.623,7.013-41.091
		c6.231-24.767,14.187-38.711,23.866-41.829c0.654-0.161,1.27-0.45,1.846-0.861c0.573-0.408,1.188-0.615,1.846-0.615
		c0.492,0,0.941,0.208,1.354,0.615c0.407,0.411,0.86,0.7,1.353,0.861c3.606,0.658,7.013,2.915,10.212,6.767
		c3.198,3.856,6.354,9.965,9.473,18.331h24.852c1.803,0,3.033,0.78,3.69,2.337c0.653,1.561,0.984,4.717,0.984,9.473L578.406,706.472
		z M504.836,940.715c-3.117,4.289-5.251,7.635-6.397,10.033c-1.149,2.393-1.722,4.83-1.722,7.305c0,2.643,0.861,5.244,2.583,7.805
		c1.723,2.561,3.976,4.664,6.767,6.316c2.953,1.65,6.151,2.93,9.597,3.842c3.444,0.902,7.789,1.361,13.04,1.361
		c12.465,0,22.43-2.068,29.896-6.195c7.463-4.133,11.195-9.668,11.195-16.604c0-5.951-2.545-9.916-7.627-11.895
		c-1.315-0.492-2.83-0.947-4.553-1.354c-1.722-0.412-3.732-0.701-6.028-0.861c-1.476-0.166-3.198-0.285-5.167-0.369
		c-1.968-0.082-4.268-0.123-6.89-0.123c-2.133,0-4.06-0.039-5.782-0.123c-1.722-0.082-3.652-0.123-5.782-0.123
		c-4.429-0.162-8.242-0.328-11.441-0.492c-3.198-0.162-6.274-0.572-9.227-1.23l-0.738,0.984c-0.165,0.33-0.369,0.656-0.615,0.984
		c-0.246,0.326-0.453,0.572-0.615,0.738H504.836z M518.369,893.718c1.969,1.968,4.591,2.953,7.874,2.953
		c2.787,0,5.328-0.984,7.627-2.953c5.083-14.271,7.628-42.156,7.628-83.658c0-45.108-1.354-78.326-4.06-99.651
		c-2.707-21.322-6.932-31.987-12.672-31.987c-5.252,0-9.065,7.997-11.441,23.99c-2.38,15.994-3.567,40.968-3.567,74.923
		c0,30.349,0.737,55.2,2.214,74.554c1.477,19.357,3.525,33.217,6.151,41.583L518.369,893.718z"/>
	<path d="M688.633,706.472c0,6.397-0.246,10.542-0.738,12.426c-0.492,1.888-1.642,2.83-3.444,2.83h-15.748
		c1.804,12.96,3.114,25.305,3.938,37.031c0.818,11.73,1.229,24.321,1.229,37.769c0,20.668-1.026,39.246-3.075,55.731
		c-2.053,16.485-4.883,30.388-8.489,41.706c-3.117,2.953-6.809,5.29-11.072,7.012c-4.268,1.723-9.023,2.584-14.271,2.584
		c-3.938,0-8.612-0.9-14.025-2.707c-4.594,5.579-6.89,9.927-6.89,13.041c0,0.823,0.285,1.765,0.861,2.83
		c0.573,1.069,1.188,1.765,1.846,2.091c2.46,1.15,4.756,1.807,6.89,1.968c2.622,0.166,5.29,0.331,7.996,0.492
		c2.707,0.166,5.617,0.331,8.735,0.492l19.93,0.738c1.969,0.165,3.895,0.534,5.782,1.107c1.884,0.576,3.729,1.272,5.536,2.091
		c3.114,1.477,5.821,3.53,8.12,6.151c2.295,2.627,3.937,5.498,4.921,8.613c0.984,2.951,1.477,5.82,1.477,8.611
		c0,11.973-5.744,21.898-17.224,29.771c-5.744,4.1-11.934,7.26-18.577,9.475c-6.644,2.213-14.148,3.32-22.514,3.32
		c-10.992,0-20.423-2.379-28.296-7.135c-7.874-4.594-11.811-9.928-11.811-15.994c0-3.283,0.818-6.604,2.46-9.965
		c1.638-3.363,4.51-7.344,8.612-11.934l5.413-6.15l2.46-2.707c0.327,0,0.9-0.572,1.723-1.723c-7.055-1.969-10.58-5.904-10.58-11.81
		c0-5.575,4.018-12.63,12.057-21.161l3.937-4.183l0.492-0.492c0.162-0.161,0.246-0.327,0.246-0.492
		c-0.984-0.653-1.888-1.311-2.706-1.968c-0.823-0.653-1.642-1.311-2.461-1.968c-3.937-12.956-7.013-28.008-9.227-45.151
		c-2.215-17.139-3.322-36.292-3.322-57.453c0-18.37,0.776-35.02,2.338-49.949c1.557-14.925,3.895-28.623,7.013-41.091
		c6.231-24.767,14.187-38.711,23.866-41.829c0.654-0.161,1.27-0.45,1.846-0.861c0.573-0.408,1.188-0.615,1.846-0.615
		c0.492,0,0.941,0.208,1.354,0.615c0.407,0.411,0.86,0.7,1.353,0.861c3.606,0.658,7.013,2.915,10.212,6.767
		c3.198,3.856,6.354,9.965,9.473,18.331h24.852c1.803,0,3.033,0.78,3.69,2.337c0.653,1.561,0.984,4.717,0.984,9.473L688.633,706.472
		z M615.063,940.715c-3.117,4.289-5.251,7.635-6.397,10.033c-1.149,2.393-1.722,4.83-1.722,7.305c0,2.643,0.861,5.244,2.583,7.805
		c1.723,2.561,3.976,4.664,6.767,6.316c2.953,1.65,6.151,2.93,9.597,3.842c3.444,0.902,7.789,1.361,13.04,1.361
		c12.465,0,22.43-2.068,29.896-6.195c7.463-4.133,11.195-9.668,11.195-16.604c0-5.951-2.545-9.916-7.627-11.895
		c-1.315-0.492-2.83-0.947-4.553-1.354c-1.722-0.412-3.732-0.701-6.028-0.861c-1.476-0.166-3.198-0.285-5.167-0.369
		c-1.968-0.082-4.268-0.123-6.89-0.123c-2.133,0-4.06-0.039-5.782-0.123c-1.722-0.082-3.652-0.123-5.782-0.123
		c-4.429-0.162-8.242-0.328-11.441-0.492c-3.198-0.162-6.274-0.572-9.227-1.23l-0.738,0.984c-0.165,0.33-0.369,0.656-0.615,0.984
		c-0.246,0.326-0.453,0.572-0.615,0.738H615.063z M628.596,893.718c1.969,1.968,4.591,2.953,7.874,2.953
		c2.787,0,5.328-0.984,7.627-2.953c5.083-14.271,7.628-42.156,7.628-83.658c0-45.108-1.354-78.326-4.06-99.651
		c-2.707-21.322-6.932-31.987-12.672-31.987c-5.252,0-9.065,7.997-11.441,23.99c-2.38,15.994-3.567,40.968-3.567,74.923
		c0,30.349,0.737,55.2,2.214,74.554c1.477,19.357,3.525,33.217,6.151,41.583L628.596,893.718z"/>
	<path d="M793.939,610.266v-4.183h41.829v4.183c-5.905,0.657-10.173,2.46-12.795,5.413c-2.461,2.46-5.006,7.958-7.628,16.485
		l-7.874,26.082l-20.914,234.98l-13.779,47.243l-1.23,3.443h-4.183l-1.23-3.443l-15.747-47.243l-23.375-234.98l-10.088-30.018
		c-1.807-5.248-3.406-8.858-4.798-10.827c-1.396-1.968-3.241-3.606-5.536-4.921c-2.3-1.311-5.252-1.968-8.858-1.968v-4.183h55.608
		v4.183h-2.461c-8.531,0-12.795,2.626-12.795,7.874c0,1.149,0.492,3.283,1.477,6.397L750.633,658l23.129,235.226l0.984,3.199h0.492
		l0.984-3.199L796.645,658h0.246l9.597-32.479c0.326-1.146,0.614-2.418,0.86-3.814c0.246-1.392,0.369-2.499,0.369-3.322
		c0-5.413-4.183-8.12-12.549-8.12H793.939z"/>
</g>
<g enable-background="new    ">
	<path d="M94.632,1249.828v2.906H47.934v-2.906h1.369c5.586,0,9.178-1.027,10.776-3.082c0.911-1.027,1.566-2.596,1.967-4.707
		c0.398-2.111,0.599-4.707,0.599-7.789v-195.83c0-6.617-0.855-10.785-2.565-12.495c-1.256-1.94-4.849-2.911-10.776-2.911h-1.369
		v-3.081h85.013l0.855,25.315h-3.079c-0.345-3.99-0.946-7.068-1.804-9.236c-0.858-2.165-2.202-4.047-4.03-5.645
		c-1.717-1.48-3.605-2.508-5.664-3.079c-2.061-0.569-5.265-0.855-9.611-0.855H78.724v83.646h15.982c4.354,0,7.591-0.626,9.71-1.883
		c2.12-1.253,3.924-3.533,5.415-6.842c1.719-3.99,2.98-9.092,3.782-15.309c0.802-6.215,1.202-14.168,1.202-23.862v-5.987h2.908
		v133.08h-2.908v-6.5c0-10.376-0.259-18.615-0.774-24.718c-0.517-6.099-1.348-11.032-2.491-14.796
		c-0.689-2.395-1.433-4.276-2.234-5.645c-0.802-1.369-1.719-2.451-2.75-3.25c-1.948-1.369-4.926-2.053-8.936-2.053H78.724v101.752
		c0,2.973,0.228,5.514,0.685,7.625c0.454,2.111,1.082,3.74,1.881,4.881c0.797,1.029,2.08,1.742,3.849,2.143
		c1.768,0.402,4.133,0.715,7.1,0.941L94.632,1249.828z"/>
	<path d="M182.036,1055.854c6.612,12.316,11.803,30.105,15.565,53.369c1.938,11.631,3.392,23.664,4.362,36.092
		c0.967,12.431,1.454,26,1.454,40.711c0,5.473-0.115,10.977-0.343,16.506c-0.229,5.533-0.513,11.033-0.855,16.507
		c-1.939,9.01-5.874,16.821-11.802,23.435c-3.993,4.676-8.553,7.812-13.685,9.408c-1.711,0.568-3.479,1.053-5.303,1.453
		c-1.825,0.398-3.707,0.6-5.645,0.6c-1.825,0-3.536-0.201-5.132-0.6c-1.599-0.4-3.138-0.885-4.618-1.453
		c-2.51-0.912-4.562-2.166-6.158-3.764c-1.598-1.596-2.395-3.422-2.395-5.475c0-1.822,0.625-3.305,1.882-4.447
		c1.253-1.139,2.793-1.711,4.618-1.711c1.596,0,3.021,0.287,4.276,0.855c1.253,0.572,3.362,2.053,6.329,4.447
		c1.822,1.369,3.362,2.34,4.618,2.908c1.254,0.572,2.622,0.855,4.105,0.855c2.165,0,4.247-0.484,6.243-1.453
		c1.994-0.969,3.733-2.25,5.217-3.85c2.165-2.506,3.935-5.645,5.303-9.407c1.369-3.763,2.109-7.639,2.224-11.632
		c0-0.911,0.027-1.881,0.086-2.908c0.056-1.025,0.085-2.053,0.085-3.078c0-11.744-0.457-22.836-1.368-33.27
		c-0.914-10.436-2.282-20.84-4.105-31.218c-1.825-10.376-3.878-19.441-6.157-27.197c-2.283-7.753-4.961-14.54-8.04-20.355
		s-6.272-10.233-9.579-13.257c-3.309-3.02-7.184-5.102-11.631-6.243l2.907-25.315h0.172l14.197-36.435h36.604l-6.328,13.685h-28.908
		l-6.5,16.763c3.421,0.457,6.612,1.171,9.579,2.138c2.964,0.971,5.7,2.197,8.21,3.678L182.036,1055.854z"/>
	<path d="M253.192,1254.275c-1.711,0-3.309-0.172-4.79-0.514c-1.483-0.342-2.967-0.799-4.447-1.369
		c-5.474-2.053-10.092-5.871-13.855-11.459c-3.763-5.586-6.328-12.658-7.697-21.211c-0.457-7.869-0.799-15.822-1.026-23.862
		c-0.229-8.04-0.342-16.507-0.342-25.401c0-21.322,0.599-41.395,1.796-60.211c1.197-18.815,2.879-36.947,5.046-54.395
		c1.823-3.99,3.905-7.81,6.244-11.461c2.336-3.647,5.102-7.068,8.296-10.263c5.474-5.474,11.23-9.605,17.276-12.401
		c6.043-2.793,12.145-4.19,18.303-4.19c0.342,0,0.825,0,1.454,0c0.625,0,1.339,0.059,2.138,0.171l-0.513,2.908
		c-8.211,0.457-15.651,3.827-22.323,10.11c-6.671,6.286-12.003,14.74-15.993,25.366c-0.914,8.227-1.77,16.625-2.565,25.193
		c-0.8,8.568-1.428,17.653-1.882,27.248l0.171,0.857c5.586-19.043,12.086-28.564,19.5-28.564c7.526,0,13.685,10.434,18.474,31.302
		c2.507,10.72,4.389,22.408,5.645,35.065c1.254,12.658,1.882,26.855,1.882,42.593c0,5.132,0,10.122,0,14.967
		c0,4.849-0.229,9.836-0.684,14.968c-0.23,3.42-0.941,6.729-2.139,9.92c-1.197,3.195-2.539,6.273-4.02,9.238
		c-1.711,3.309-3.878,6.131-6.5,8.467c-2.625,2.338-5.474,4.02-8.553,5.045c-1.483,0.455-2.967,0.883-4.447,1.283
		C256.156,1254.074,254.672,1254.275,253.192,1254.275z M263.454,1136.762c-2.852-20.184-6.9-30.276-12.145-30.276
		c-4.789,0-9.579,7.812-14.368,23.435l-0.685,23.263c-0.115,3.651-0.171,7.612-0.171,11.888c0,4.277,0,9.152,0,14.625
		c0,7.527,0.026,14.54,0.086,21.04c0.056,6.5,0.197,12.829,0.427,18.987c0.112,3.309,0.54,6.357,1.283,9.15
		c0.74,2.797,1.625,5.389,2.651,7.783c3.421,8.098,8.211,12.145,14.368,12.145c4.447,0,7.896-2.139,10.349-6.414
		c2.451-4.277,3.678-10.52,3.678-18.73c0-0.684-0.029-1.339-0.085-1.967c-0.059-0.625-0.086-1.283-0.086-1.967
		c-0.115-17.79-0.599-33.383-1.454-46.783c-0.854-13.398-2.025-25.287-3.506-35.664L263.454,1136.762z"/>
	<path d="M354.964,1252.564c1.596,5.131,3.79,9.777,6.586,13.941c2.793,4.16,5.842,7.381,9.151,9.664
		c2.164,1.48,4.845,2.793,8.039,3.934c3.191,1.139,6.441,1.938,9.75,2.395v2.908c-7.185-0.457-13.685-1.625-19.5-3.506
		c-5.815-1.883-11.632-4.705-17.447-8.467c-4.335-2.854-8.325-5.902-11.974-9.152c-3.651-3.25-6.957-6.871-9.921-10.861
		c-0.572-0.115-1.171-0.316-1.797-0.6c-0.628-0.285-1.227-0.486-1.796-0.598c-6.157-2.281-11.661-6.33-16.506-12.145
		c-4.849-5.816-8.582-12.658-11.204-20.527c-1.257-13.454-2.253-27.453-2.994-41.993c-0.742-14.54-1.111-30.02-1.111-46.44
		c0-13.455,0.257-26.342,0.77-38.658c0.514-12.316,1.225-24.346,2.139-36.092c2.736-9.579,6.954-17.846,12.657-24.803
		c4.105-4.789,8.639-8.322,13.599-10.605c4.961-2.279,10.691-3.421,17.191-3.421c12.543,0,22.806,4.677,30.789,14.026
		c5.816,6.729,10.033,14.996,12.658,24.803c0.911,11.746,1.625,23.775,2.138,36.092c0.514,12.316,0.771,25.203,0.771,38.658
		c0,16.421-0.372,31.9-1.112,46.44c-0.743,14.54-1.74,28.539-2.993,41.993c-2.51,7.869-6.132,14.654-10.862,20.355
		c-4.733,5.703-10.178,9.75-16.335,12.145c-0.115,0-0.172,0.029-0.172,0.086c0,0.059-0.059,0.086-0.171,0.086L354.964,1252.564z
		 M340.425,1248.459c4.789,0,8.865-1.139,12.229-3.422c3.362-2.279,6.3-5.986,8.81-11.117c0.911-1.822,1.737-3.961,2.48-6.415
		c0.74-2.45,1.339-5.158,1.796-8.125c0.454-12.086,0.855-25.401,1.197-39.94s0.514-30.875,0.514-49.007
		c0-14.368-0.115-27.54-0.343-39.513c-0.229-11.975-0.513-23.435-0.855-34.382c-1.483-11.632-4.335-20.04-8.552-25.23
		c-4.221-5.188-9.922-7.782-17.105-7.782c-9.694,0-16.822,4.789-21.382,14.367c-1.142,2.283-2.138,4.99-2.993,8.125
		c-0.855,3.139-1.398,6.701-1.625,10.691c-0.572,10.721-0.914,22.066-1.026,34.039c-0.115,11.975-0.171,25.316-0.171,40.027
		c0,18.361,0.085,34.781,0.256,49.263c0.172,14.483,0.655,27.71,1.454,39.685c0.228,3.65,0.882,6.785,1.968,9.407
		c1.082,2.624,2.25,5.019,3.506,7.185c4.902,8.326,11.632,12.486,20.185,12.486L340.425,1248.459z"/>
	<path d="M401.149,1062.183l46.523-0.171v9.066l-22.662,148.645l-13.732,26.512h15.034c6.377,0,10.707-1.137,12.984-3.42
		c1.25-1.254,2.218-3.049,2.902-5.389c0.684-2.336,1.139-5.217,1.368-8.638h2.908l-1.032,23.093h-51.139v-2.908l15.076-29.25
		l21.122-138.04h-14.253c-4.467,0-7.615,3.479-9.445,10.435c-0.917,3.65-1.689,8.724-2.317,15.224
		c-0.631,6.5-1.059,14.769-1.288,24.802h-2.908L401.149,1062.183z"/>
	<path d="M557.996,1249.656v2.908h-42.592v-2.908h2.395c5.474,0,8.211-1.48,8.211-4.447c0-0.912-0.2-1.908-0.599-2.994
		c-0.401-1.082-1.283-2.764-2.651-5.045l-10.093-17.105l-10.434-60.211l-12.145,60.211l-11.803,17.447
		c-2.283,3.309-3.421,5.645-3.421,7.014c0,1.482,0.825,2.709,2.479,3.678c1.652,0.969,3.79,1.453,6.415,1.453h1.539v2.908h-32.157
		v-2.908h1.025c2.622,0,5.073-0.77,7.355-2.309c2.28-1.539,4.56-4.02,6.843-7.441l13.342-19.842l16.592-82.447l-14.026-81.079
		h-0.171l-12.486-21.21c-2.853-4.79-5.504-8.066-7.954-9.836c-2.454-1.768-5.503-2.651-9.151-2.651h-1.54v-2.908h45.672v2.908
		h-1.026c-1.599,0-2.796,0.059-3.593,0.171c-0.799,0.115-1.539,0.23-2.224,0.342c-1.141,0.457-2.082,1.112-2.822,1.967
		c-0.743,0.855-1.111,1.855-1.111,2.994c0,0.914,0.197,1.854,0.599,2.822c0.397,0.971,0.882,2.025,1.453,3.164l12.829,21.895h0.171
		l5.303,30.619l6.158-30.619h0.171l14.882-21.895c1.596-2.279,2.395-4.332,2.395-6.158c0-3.647-2.967-5.473-8.895-5.473h-1.711
		v-2.908h35.408v2.908h-1.539c-4.221,0-7.414,0.914-9.579,2.736c-1.142,0.799-2.48,2.197-4.02,4.191
		c-1.54,1.996-3.451,4.647-5.73,7.953l-12.829,18.816l-10.435,52l19.329,111.525l10.092,16.936c2.053,3.42,3.764,5.9,5.132,7.439
		c1.368,1.541,2.85,2.711,4.447,3.508c0.797,0.457,1.737,0.828,2.822,1.111c1.083,0.285,1.968,0.428,2.651,0.428L557.996,1249.656z"
		/>
	<path d="M635.31,1249.314l0.171,2.908h-46.526v-2.908h1.539c5.701,0,9.35-1.027,10.947-3.08c0.912-1.025,1.566-2.592,1.968-4.703
		c0.398-2.109,0.599-4.703,0.599-7.783v-70.131l-15.737-107.25l-11.631-23.264c-1.026-1.938-1.94-3.533-2.737-4.789
		c-0.799-1.254-1.654-2.279-2.565-3.079c-0.914-0.796-1.968-1.368-3.165-1.71c-1.197-0.343-2.595-0.626-4.19-0.855v-2.908h39.171
		v2.908h-1.368c-3.421,0-5.789,0.314-7.099,0.94c-1.312,0.628-1.968,1.739-1.968,3.335c0,1.484,0.455,3.023,1.369,4.619
		l12.177,24.461l10.712,72.525l9.816-72.525h0.172l11.254-24.633c0.343-0.568,0.599-1.282,0.771-2.138
		c0.171-0.854,0.256-1.625,0.256-2.31c0-2.963-2.453-4.447-7.354-4.447h-1.711v-2.907h30.105v2.907c-3.978,0-7.27,1.086-9.879,3.25
		c-2.159,1.826-4.543,5.645-7.154,11.461l-9.028,19.158l-14.136,103.145v74.236c0,3.08,0.227,5.674,0.684,7.783
		c0.455,2.111,1.083,3.736,1.882,4.875c1.596,1.941,5.244,2.908,10.947,2.908H635.31z"/>
	<path d="M757.781,1241.787l0.171,0.172c-3.421,2.51-6.786,4.562-10.092,6.158c-3.309,1.598-6.786,2.967-10.435,4.105
		c-2.51,0.797-5.075,1.424-7.697,1.881c-2.625,0.455-5.303,0.684-8.039,0.684c-2.737,0-5.389-0.229-7.954-0.684
		c-2.566-0.457-5.046-1.084-7.441-1.881c-7.868-2.395-14.625-6.33-20.27-11.803c-5.645-5.475-9.95-12.316-12.914-20.527
		c-1.257-12.086-2.224-24.717-2.908-37.888s-1.026-27.282-1.026-42.335c0-14.711,0.342-28.908,1.026-42.592
		c0.685-13.686,1.651-27.027,2.908-40.027c2.165-7.525,5.586-14.309,10.263-20.355c4.79-6.157,10.148-10.861,16.079-14.111
		c5.928-3.25,12.487-4.875,19.671-4.875c4.218,0,8.096,0.543,11.632,1.625c3.533,1.085,7.697,2.822,12.487,5.217
		c1.48,0.685,2.565,1.027,3.25,1.027c1.253,0,2.193-0.6,2.822-1.797c0.625-1.197,0.996-3.164,1.111-5.901h2.908l2.053,36.948h-2.737
		c-0.687-3.764-1.488-7.041-2.402-9.836c-0.914-2.793-2.059-5.33-3.43-7.612c-2.515-3.99-6.059-7.27-10.632-9.835
		c-4.575-2.566-9.435-3.85-14.579-3.85c-7.89,0-14.577,2.908-20.066,8.725c-5.49,5.815-9.376,14.085-11.661,24.803
		c-0.688,11.062-1.203,22.607-1.545,34.638c-0.342,12.032-0.514,24.888-0.514,38.572c0,16.079,0.283,31.646,0.855,46.697
		c0.569,15.053,1.425,29.31,2.566,42.763c0.454,2.168,1.053,4.25,1.796,6.244c0.74,1.996,1.565,3.907,2.479,5.73
		c2.85,5.816,6.329,10.006,10.435,12.572s8.895,3.848,14.368,3.848c3.99,0,7.754-0.711,11.29-2.137
		c3.533-1.426,7.013-3.508,10.434-6.244v-61.578c0-6.5-0.059-12.061-0.171-16.678c-0.114-4.619-0.286-8.468-0.513-11.547
		c-0.23-3.306-0.514-6.185-0.855-8.638c-0.342-2.451-0.799-4.474-1.368-6.073c-1.026-2.963-2.283-5.357-3.764-7.184
		c-1.483-1.822-3.022-2.736-4.618-2.736h-0.685v-9.922h39.172v9.922h-0.514c-3.993,0-6.729,3.309-8.211,9.92
		c-0.457,1.941-0.884,4.191-1.282,6.758c-0.401,2.565-0.714,5.332-0.941,8.295c-0.342,6.047-0.513,15.34-0.513,27.883V1241.787z"/>
	<path d="M820.383,1249.314v2.566h-45.158v-2.908h1.026c5.701,0,9.349-1.027,10.947-3.08c0.911-1.025,1.566-2.592,1.967-4.703
		c0.398-2.109,0.599-4.705,0.599-7.783v-195.342c0-6.5-0.854-10.662-2.565-12.486c-1.599-2.053-5.246-3.08-10.947-3.08h-1.026
		v-2.907h45.158v2.907h-1.197c-5.247,0-8.783,1.027-10.605,3.08c-1.026,1.141-1.74,2.709-2.139,4.703
		c-0.4,1.996-0.599,4.648-0.599,7.954v195.343c0,3.309,0.198,5.959,0.599,7.953c0.398,1.996,1.112,3.566,2.139,4.703
		c1.822,2.053,5.358,3.08,10.605,3.08H820.383z"/>
</g>
<g enable-background="new    ">
	<path d="M235.211,1749.906c-6.391,14-13.695,25.422-21.922,34.264c-8.231,8.842-17.868,15.232-28.921,19.158
		c-4.421,1.715-9.026,3.068-13.815,4.053c-4.79,0.979-9.89,1.473-15.29,1.473c-5.157,0-10.131-0.553-14.921-1.658
		c-4.789-1.105-9.521-2.395-14.184-3.867c-8.601-2.947-16.579-6.816-23.947-11.605c-7.369-4.789-14.248-11.237-20.632-19.343
		c-4.669-5.647-8.658-11.789-11.974-18.421c-3.316-6.631-6.206-13.631-8.658-21c-2.21-25.295-3.932-51.637-5.158-79.026
		c-1.232-27.384-1.842-56.553-1.842-87.5c0-33.895,0.674-65.947,2.026-96.157c1.347-30.211,3.252-59.438,5.71-87.685
		c3.926-13.263,8.963-24.806,15.105-34.632c6.137-9.82,13.505-18.662,22.105-26.526c17.437-15.716,37.211-23.579,59.316-23.579
		c12.526,0,24.558,2.947,36.104,8.842l8.474,4.422c3.685,1.969,6.632,2.947,8.843,2.947c2.452,0,4.294-1.227,5.526-3.685
		c1.226-2.452,2.21-6.505,2.947-12.157h5.682l4.266,83.263h-6.264c-1.474-21.858-7.863-39.173-19.157-51.947
		c-11.548-13.263-25.916-19.896-43.105-19.896c-22.842,0-40.405,12.037-52.685,36.105c-4.179,8.105-7.615,20.264-10.315,36.475
		c-1.232,27.263-2.273,56.247-3.132,86.947c-0.863,30.705-1.289,63.736-1.289,99.105c0,32.42,0.426,61.957,1.289,88.604
		c0.858,26.653,2.026,51.763,3.5,75.343c1.963,9.578,4.542,17.811,7.737,24.684c5.646,11.789,13.447,20.942,23.395,27.447
		c9.947,6.512,21.553,9.764,34.815,9.764c14,0,26.031-3.869,36.105-11.605c10.068-7.736,19.399-20.079,28-37.026L235.211,1749.906z"
		/>
	<path d="M322.152,1385.906c0.737-0.242,1.531-0.674,2.395-1.289c0.858-0.61,1.779-0.922,2.764-0.922
		c0.979,0,1.778,0.312,2.395,0.922c0.61,0.615,1.41,1.047,2.395,1.289c18.174,4.422,33.158,34.021,44.947,88.789
		c5.647,27.264,10.005,57.602,13.079,91c3.068,33.406,4.605,71.232,4.605,113.475c0,9.337,0,18.484,0,27.447
		c0,8.969-0.368,17.747-1.105,26.342c-1.474,16.947-6.263,31.5-14.368,43.658s-18.421,20.695-30.947,25.605
		c-3.685,1.473-7.495,2.637-11.421,3.5c-3.933,0.857-7.984,1.289-12.158,1.289c-7.368,0-14.984-1.6-22.842-4.789
		c-12.526-5.158-22.658-13.754-30.396-25.79c-7.736-12.031-12.221-26.526-13.447-43.474c-0.736-7.857-1.105-15.842-1.105-23.947
		s0-16.452,0-25.053c0-42.979,1.475-81.421,4.422-115.316c2.947-33.895,7.609-64.842,14-92.842
		C288.13,1420.297,303.731,1390.328,322.152,1385.906z M328.046,1794.854c5.895,0,11.295-1.779,16.211-5.336
		c4.91-3.559,8.474-8.277,10.684-14.173c1.964-5.394,3.5-11.341,4.605-17.845c1.105-6.506,1.658-14.542,1.658-24.109v-17.667
		c0-193.841-12.405-290.765-37.211-290.765c-11.547,0-19.958,17.299-25.236,51.896c-5.285,34.597-7.921,87.356-7.921,158.266
		c0,18.651,0,36.007,0,52.08c0,16.072,0.489,31.466,1.474,46.19c1.226,21.346,4.91,36.992,11.053,46.928
		c6.136,9.936,14.368,14.904,24.684,14.904V1794.854z"/>
	<path d="M515.197,1802.59c-3.195,1.475-6.574,2.701-10.132,3.686c-3.563,0.979-7.311,1.473-11.236,1.473
		c-7.368,0-16.458-1.721-27.264-5.158c-4.916-1.715-9.763-3.926-14.553-6.631c-4.789-2.699-9.642-5.895-14.552-9.578V1343.17
		c0-15.716-4.422-23.579-13.264-23.579c-1.474,0-2.89,0.126-4.236,0.368c-1.354,0.248-3.259,0.863-5.711,1.842l-2.579-6.263
		l48.264-22.105h6.263v197.843h0.737c5.895-35.611,11.847-61.896,17.868-78.843c6.016-16.947,12.584-26.647,19.71-29.104
		c0.489-0.242,1.042-0.674,1.658-1.29c0.61-0.61,1.29-0.921,2.026-0.921c1.227,0,2.82,0.736,4.789,2.211
		c5.896,2.457,11.542,9.089,16.948,19.895c5.399,10.811,10.188,26.284,14.368,46.42c2.699,12.774,5.031,26.222,7,40.343
		c1.963,14.126,3.684,29.29,5.158,45.5c1.226,16.21,2.146,33.526,2.763,51.947c0.61,18.421,0.921,38.442,0.921,60.053
		c0,15.474-0.184,30.21-0.553,44.21c-0.368,14-0.8,27.633-1.289,40.896c-2.458,16.947-7.311,31.563-14.553,43.842
		c-7.248,12.284-16.395,20.88-27.447,25.79L515.197,1802.59z M465.46,1776.064h0.368c9.579,14,19.526,21,29.842,21
		c4.663,0,9.211-1.842,13.632-5.527c4.421-3.684,7.857-8.473,10.315-14.367c2.211-4.91,3.989-10.99,5.343-18.237
		c1.347-7.241,2.025-16.026,2.025-26.342v-24.315c0-42.242-0.679-79.027-2.025-110.343c-1.354-31.315-3.38-58.147-6.079-80.5
		c-5.405-44.452-13.264-66.685-23.579-66.685c-5.405,0-10.442,6.695-15.105,20.08c-4.669,13.389-9.579,34.573-14.736,63.552
		V1776.064z"/>
	<path d="M661.083,1796.695v6.264h-81.421v-6.264h2.579c13.753,0,20.632-9.33,20.632-28v-214.42c0-10.316,0-19.096,0-26.343
		c0-7.241-0.127-12.952-0.368-17.132c-0.248-4.174-0.495-8.105-0.737-11.789c-0.247-3.684-0.616-7.121-1.105-10.316
		c-1.969-13.504-5.405-20.263-10.315-20.263c-1.232,0-2.337,0.368-3.316,1.105c-0.984,0.737-2.337,1.969-4.052,3.685l-1.843-21
		l44.557-67.79l1.496-1.842h5.895v119.368h0.737l7.736-50.105c0.979-5.646,2.026-10.989,3.132-16.025
		c1.105-5.031,2.269-9.516,3.5-13.448c3.926-12.526,7.61-21.737,11.053-27.632c3.437-5.895,7-9.451,10.685-10.684
		c0.489-0.242,0.979-0.61,1.474-1.105c0.489-0.489,0.857-0.736,1.105-0.736c0.736,0,1.347,0.247,1.842,0.736
		c0.489,0.495,1.105,0.863,1.842,1.105c5.158,2.458,9.452,9.643,12.895,21.553c3.438,11.916,5.158,26.342,5.158,43.289
		c0,15.232-1.721,29.105-5.158,41.632c-2.947,11.3-6.879,16.947-11.789,16.947c-2.458,0-4.421-1.531-5.895-4.605
		c-1.474-3.067-3.442-8.531-5.895-16.395c-2.459-7.858-4.301-12.952-5.526-15.29c-1.232-2.331-2.579-3.5-4.053-3.5
		c-3.932,0-7.495,5.896-10.685,17.685c-3.195,11.79-7.127,31.563-11.789,59.315v222.896c0,10.315,1.842,17.563,5.526,21.737
		c3.684,4.178,10.188,6.262,19.526,6.262L661.083,1796.695z"/>
	<path d="M823.183,1801.484c-4.916,3.438-9.947,5.158-15.105,5.158c-2.458,0-4.605-0.494-6.447-1.473
		c-1.843-0.984-3.627-2.211-5.343-3.686c-2.458-2.451-4.421-5.83-5.895-10.131c-1.474-4.295-2.21-9.637-2.21-16.025h-0.737
		c-3.685,6.631-7.495,11.973-11.421,16.025c-3.932,4.053-8.232,7.311-12.895,9.764c-2.458,1.227-5.037,2.332-7.737,3.316
		c-2.705,0.979-5.652,1.473-8.842,1.473c-3.195,0-6.143-0.494-8.842-1.473c-2.706-0.984-5.285-2.09-7.737-3.316
		c-6.39-3.189-11.421-7.736-15.105-13.633c-3.684-5.895-5.526-12.894-5.526-20.999c0-6.384,1.227-12.584,3.685-18.605
		c2.452-6.016,5.768-11.357,9.947-16.026c0.737-3.189,1.474-6.32,2.211-9.395c0.736-3.068,1.594-5.952,2.578-8.658
		c4.422-12.525,10.132-26.215,17.132-41.078c7-14.858,14.553-28.922,22.658-42.185l18.053-29.843l2.947-6.263v-85.842
		c0-68.031-7.495-102.053-22.474-102.053c-6.143,0-11.548,7-16.211,21c-4.421,13.759-6.631,30.458-6.631,50.104
		c0,4.422,0.12,8.906,0.368,13.448c0.241,4.548,0.61,8.784,1.105,12.71l1.474,13.632c0.489,3.194,0.673,6.327,0.553,9.396
		c-0.127,3.073-0.185,6.078-0.185,9.025c0,6.391-0.311,12.285-0.921,17.685c-0.616,5.405-1.658,10.315-3.132,14.737
		c-2.947,9.336-6.632,14-11.053,14c-4.669,0-8.537-5.953-11.605-17.869c-3.073-11.91-4.604-27.568-4.604-46.974
		c0-34.384,4.662-64.226,14-89.526c9.331-25.789,20.752-40.895,34.263-45.315c2.211-1.227,5.031-1.843,8.474-1.843
		c0.489,0,1.042,0.248,1.658,0.737c0.61,0.495,1.289,0.863,2.026,1.105c7.12,1.231,13.447,5.342,18.974,12.342
		s10.252,17.132,14.184,30.396c3.927,13.51,6.505,27.758,7.737,42.736c0.489,7.127,0.921,16.521,1.289,28.184
		c0.369,11.669,0.553,25.605,0.553,41.816v223.264c0,5.652,0.121,9.705,0.368,12.157c0.242,2.458,0.61,4.548,1.105,6.263
		c0.489,1.969,1.531,3.5,3.132,4.605c1.595,1.105,3.253,1.658,4.974,1.658c1.963,0,3.868-0.49,5.711-1.475
		c1.842-0.979,4.357-2.699,7.553-5.157v6.632c-2.459,3.684-5.158,6.941-8.105,9.764c-2.947,2.826-5.774,5.1-8.474,6.814
		L823.183,1801.484z M739.551,1755.433c0,8.601,1.842,15.722,5.526,21.368c3.684,5.652,8.715,8.475,15.105,8.475
		c4.173,0,8.104-1.227,11.789-3.686c3.685-2.451,8.347-6.999,14-13.631l1.842-2.211v-135.21
		c-11.053,17.685-19.895,34.573-26.526,50.657c-6.631,16.09-11.668,32.975-15.104,50.658c-2.458,3.443-4.18,7.063-5.158,10.869
		c-0.984,3.811-1.474,7.92-1.474,12.342V1755.433z"/>
</g>
</svg>
